Barlow-Light.ufo
<glyph name="quotedbl" format="1">
  <advance width="196"/>
  <unicode hex="0022"/>
  <outline>
    <contour>
      <point x="153" y="500" type="line"/>
      <point x="156" y="692" type="line"/>
      <point x="130" y="692" type="line"/>
      <point x="133" y="500" type="line"/>
    </contour>
    <contour>
      <point x="63" y="500" type="line"/>
      <point x="66" y="692" type="line"/>
      <point x="40" y="692" type="line"/>
      <point x="43" y="500" type="line"/>
    </contour>
  </outline>
</glyph>
<glyph name="numbersign" format="1">
  <advance width="640"/>
  <unicode hex="0023"/>
  <outline>
    <contour>
      <point x="392" y="9" type="line"/>
      <point x="496" y="675" type="line"/>
      <point x="474" y="677" type="line"/>
      <point x="370" y="11" type="line"/>
    </contour>
    <contour>
      <point x="162" y="9" type="line"/>
      <point x="266" y="675" type="line"/>
      <point x="244" y="677" type="line"/>
      <point x="140" y="11" type="line"/>
    </contour>
    <contour>
      <point x="549" y="447" type="line"/>
      <point x="550" y="468" type="line"/>
      <point x="127" y="468" type="line"/>
      <point x="126" y="447" type="line"/>
    </contour>
    <contour>
      <point x="513" y="217" type="line"/>
      <point x="514" y="238" type="line"/>
      <point x="91" y="238" type="line"/>
      <point x="90" y="217" type="line"/>
    </contour>
  </outline>
</glyph>
<glyph name="ampersand" format="1">
  <advance width="632"/>
  <unicode hex="0026"/>
  <outline>
    <contour>
      <point x="372" y="-8"/>
      <point x="426" y="56"/>
      <point x="551" y="224" type="curve"/>
      <point x="533" y="236" type="line"/>
      <point x="406" y="68"/>
      <point x="360" y="13"/>
      <point x="253" y="13" type="curve" smooth="yes"/>
      <point x="155" y="13"/>
      <point x="92" y="60"/>
      <point x="92" y="145" type="curve" smooth="yes"/>
      <point x="92" y="337"/>
      <point x="415" y="391"/>
      <point x="415" y="576" type="curve" smooth="yes"/>
      <point x="415" y="656"/>
      <point x="355" y="708"/>
      <point x="270" y="708" type="curve" smooth="yes"/>
      <point x="185" y="708"/>
      <point x="125" y="656"/>
      <point x="125" y="572" type="curve" smooth="yes"/>
      <point x="125" y="502"/>
      <point x="166" y="456"/>
      <point x="241" y="361" type="curve"/>
      <point x="539" y="0" type="line"/>
      <point x="566" y="0" type="line"/>
      <point x="258" y="375" type="line"/>
      <point x="189" y="463"/>
      <point x="147" y="507"/>
      <point x="147" y="572" type="curve" smooth="yes"/>
      <point x="147" y="643"/>
      <point x="198" y="686"/>
      <point x="270" y="686" type="curve" smooth="yes"/>
      <point x="342" y="686"/>
      <point x="393" y="643"/>
      <point x="393" y="577" type="curve" smooth="yes"/>
      <point x="393" y="410"/>
      <point x="70" y="353"/>
      <point x="70" y="146" type="curve" smooth="yes"/>
      <point x="70" y="44"/>
      <point x="140" y="-8"/>
      <point x="253" y="-8" type="curve" smooth="yes"/>
    </contour>
  </outline>
</glyph>
<glyph name="period" format="1">
  <advance width="278"/>
  <unicode hex="002E"/>
  <outline>
    <contour>
      <point x="158" y="7"/>
      <point x="178" y="25"/>
      <point x="178" y="48" type="curve" smooth="yes"/>
      <point x="178" y="70"/>
      <point x="158" y="88"/>
      <point x="136" y="88" type="curve" smooth="yes"/>
      <point x="114" y="88"/>
      <point x="95" y="70"/>
      <point x="95" y="48" type="curve" smooth="yes"/>
      <point x="95" y="25"/>
      <point x="113" y="7"/>
      <point x="136" y="7" type="curve" smooth="yes"/>
    </contour>
  </outline>
</glyph>
<glyph name="one" format="1">
  <advance width="346"/>
  <unicode hex="0031"/>
  <outline>
    <contour>
      <point x="256" y="0" type="line"/>
      <point x="256" y="700" type="line"/>
      <point x="234" y="700" type="line"/>
      <point x="234" y="0" type="line"/>
    </contour>
    <contour>
      <point x="234" y="669" type="line"/>
      <point x="234" y="700" type="line"/>
      <point x="99" y="618" type="line"/>
      <point x="99" y="597" type="line"/>
    </contour>
  </outline>
</glyph>
<glyph name="three" format="1">
  <advance width="498"/>
  <unicode hex="0033"/>
  <outline>
    <contour>
      <point x="326" y="-8"/>
      <point x="382" y="32"/>
      <point x="405" y="110" type="curve" smooth="yes"/>
      <point x="413" y="137"/>
      <point x="417" y="169"/>
      <point x="417" y="205" type="curve" smooth="yes"/>
      <point x="417" y="254"/>
      <point x="410" y="295"/>
      <point x="397" y="328" type="curve" smooth="yes"/>
      <point x="369" y="397"/>
      <point x="311" y="430"/>
      <point x="225" y="426" type="curve"/>
      <point x="225" y="416" type="line"/>
      <point x="416" y="679" type="line"/>
      <point x="416" y="700" type="line"/>
      <point x="62" y="700" type="line"/>
      <point x="62" y="679" type="line"/>
      <point x="390" y="679" type="line"/>
      <point x="196" y="416" type="line"/>
      <point x="207" y="404" type="line"/>
      <point x="216" y="406"/>
      <point x="225" y="407"/>
      <point x="239" y="407" type="curve" smooth="yes"/>
      <point x="307" y="407"/>
      <point x="353" y="377"/>
      <point x="377" y="318" type="curve" smooth="yes"/>
      <point x="389" y="288"/>
      <point x="395" y="250"/>
      <point x="395" y="205" type="curve" smooth="yes"/>
      <point x="395" y="170"/>
      <point x="391" y="139"/>
      <point x="383" y="114" type="curve" smooth="yes"/>
      <point x="362" y="47"/>
      <point x="313" y="13"/>
      <point x="239" y="13" type="curve" smooth="yes"/>
      <point x="157" y="13"/>
      <point x="102" y="63"/>
      <point x="88" y="135" type="curve" smooth="yes"/>
      <point x="85" y="153"/>
      <point x="84" y="183"/>
      <point x="84" y="202" type="curve"/>
      <point x="62" y="202" type="line"/>
      <point x="62" y="183"/>
      <point x="62" y="151"/>
      <point x="69" y="123" type="curve" smooth="yes"/>
      <point x="88" y="46"/>
      <point x="149" y="-8"/>
      <point x="239" y="-8" type="curve" smooth="yes"/>
    </contour>
  </outline>
</glyph>
<glyph name="eight" format="1">
  <advance width="504"/>
  <unicode hex="0038"/>
  <outline>
    <contour>
      <point x="316" y="-8"/>
      <point x="366" y="17"/>
      <point x="395" y="63" type="curve" smooth="yes"/>
      <point x="416" y="96"/>
      <point x="427" y="138"/>
      <point x="427" y="190" type="curve" smooth="yes"/>
      <point x="427" y="226"/>
      <point x="422" y="258"/>
      <point x="411" y="285" type="curve" smooth="yes"/>
      <point x="386" y="351"/>
      <point x="332" y="388"/>
      <point x="249" y="388" type="curve" smooth="yes"/>
      <point x="175" y="388"/>
      <point x="119" y="351"/>
      <point x="91" y="289" type="curve" smooth="yes"/>
      <point x="79" y="261"/>
      <point x="72" y="228"/>
      <point x="72" y="191" type="curve" smooth="yes"/>
      <point x="72" y="144"/>
      <point x="82" y="103"/>
      <point x="101" y="71" type="curve" smooth="yes"/>
      <point x="130" y="21"/>
      <point x="181" y="-8"/>
      <point x="249" y="-8" type="curve" smooth="yes"/>
    </contour>
    <contour>
      <point x="190" y="13"/>
      <point x="146" y="36"/>
      <point x="120" y="79" type="curve" smooth="yes"/>
      <point x="103" y="108"/>
      <point x="94" y="145"/>
      <point x="94" y="190" type="curve" smooth="yes"/>
      <point x="94" y="224"/>
      <point x="99" y="254"/>
      <point x="110" y="279" type="curve" smooth="yes"/>
      <point x="132" y="335"/>
      <point x="179" y="367"/>
      <point x="249" y="367" type="curve" smooth="yes"/>
      <point x="320" y="367"/>
      <point x="369" y="334"/>
      <point x="392" y="275" type="curve" smooth="yes"/>
      <point x="400" y="251"/>
      <point x="405" y="222"/>
      <point x="405" y="190" type="curve" smooth="yes"/>
      <point x="405" y="143"/>
      <point x="395" y="105"/>
      <point x="377" y="75" type="curve" smooth="yes"/>
      <point x="351" y="35"/>
      <point x="308" y="13"/>
      <point x="249" y="13" type="curve" smooth="yes"/>
    </contour>
    <contour>
      <point x="318" y="367"/>
      <point x="374" y="396"/>
      <point x="404" y="444" type="curve" smooth="yes"/>
      <point x="420" y="470"/>
      <point x="429" y="501"/>
      <point x="429" y="536" type="curve" smooth="yes"/>
      <point x="429" y="570"/>
      <point x="422" y="600"/>
      <point x="408" y="625" type="curve" smooth="yes"/>
      <point x="379" y="677"/>
      <point x="324" y="708"/>
      <point x="249" y="708" type="curve" smooth="yes"/>
      <point x="179" y="708"/>
      <point x="124" y="678"/>
      <point x="95" y="628" type="curve" smooth="yes"/>
      <point x="79" y="603"/>
      <point x="71" y="572"/>
      <point x="71" y="537" type="curve" smooth="yes"/>
      <point x="71" y="499"/>
      <point x="82" y="465"/>
      <point x="101" y="437" type="curve" smooth="yes"/>
      <point x="132" y="394"/>
      <point x="184" y="367"/>
      <point x="249" y="367" type="curve" smooth="yes"/>
    </contour>
    <contour>
      <point x="190" y="388"/>
      <point x="145" y="411"/>
      <point x="118" y="449" type="curve" smooth="yes"/>
      <point x="102" y="472"/>
      <point x="93" y="502"/>
      <point x="93" y="536" type="curve" smooth="yes"/>
      <point x="93" y="567"/>
      <point x="100" y="594"/>
      <point x="113" y="617" type="curve" smooth="yes"/>
      <point x="138" y="660"/>
      <point x="185" y="687"/>
      <point x="249" y="687" type="curve" smooth="yes"/>
      <point x="314" y="687"/>
      <point x="364" y="659"/>
      <point x="389" y="613" type="curve" smooth="yes"/>
      <point x="401" y="592"/>
      <point x="407" y="566"/>
      <point x="407" y="538" type="curve" smooth="yes"/>
      <point x="407" y="507"/>
      <point x="400" y="479"/>
      <point x="386" y="457" type="curve" smooth="yes"/>
      <point x="361" y="414"/>
      <point x="313" y="388"/>
      <point x="249" y="388" type="curve" smooth="yes"/>
    </contour>
  </outline>
</glyph>
<glyph name="D" format="1">
  <advance width="618"/>
  <unicode hex="0044"/>
  <outline>
    <contour>
      <point x="352" y="0" type="line" smooth="yes"/>
      <point x="471" y="0"/>
      <point x="544" y="68"/>
      <point x="544" y="180" type="curve" smooth="yes"/>
      <point x="544" y="520" type="line" smooth="yes"/>
      <point x="544" y="632"/>
      <point x="471" y="700"/>
      <point x="352" y="700" type="curve" smooth="yes"/>
      <point x="117" y="700" type="line"/>
      <point x="117" y="0" type="line"/>
    </contour>
    <contour>
      <point x="139" y="679" type="line"/>
      <point x="354" y="679" type="line" smooth="yes"/>
      <point x="458" y="679"/>
      <point x="522" y="619"/>
      <point x="522" y="520" type="curve" smooth="yes"/>
      <point x="522" y="179" type="line" smooth="yes"/>
      <point x="522" y="81"/>
      <point x="458" y="21"/>
      <point x="354" y="21" type="curve" smooth="yes"/>
      <point x="139" y="21" type="line"/>
    </contour>
    <contour>
      <point x="318" y="705" type="move" name="top"/>
    </contour>
  </outline>
</glyph>
<glyph name="F" format="1">
  <advance width="574"/>
  <unicode hex="0046"/>
  <outline>
    <contour>
      <point x="139" y="0" type="line"/>
      <point x="139" y="679" type="line"/>
      <point x="547" y="679" type="line"/>
      <point x="547" y="700" type="line"/>
      <point x="117" y="700" type="line"/>
      <point x="117" y="0" type="line"/>
    </contour>
    <contour>
      <point x="438" y="340" type="line"/>
      <point x="438" y="361" type="line"/>
      <point x="128" y="361" type="line"/>
      <point x="128" y="340" type="line"/>
    </contour>
  </outline>
</glyph>
<glyph name="H" format="1">
  <advance width="672"/>
  <unicode hex="0048"/>
  <outline>
    <contour>
      <point x="555" y="0" type="line"/>
      <point x="555" y="700" type="line"/>
      <point x="533" y="700" type="line"/>
      <point x="533" y="0" type="line"/>
    </contour>
    <contour>
      <point x="139" y="0" type="line"/>
      <point x="139" y="700" type="line"/>
      <point x="117" y="700" type="line"/>
      <point x="117" y="0" type="line"/>
    </contour>
    <contour>
      <point x="538" y="340" type="line"/>
      <point x="538" y="361" type="line"/>
      <point x="134" y="361" type="line"/>
      <point x="134" y="340" type="line"/>
    </contour>
    <contour>
      <point x="336" y="509" type="move" name="strokelong"/>
    </contour>
  </outline>
</glyph>
<glyph name="J" format="1">
  <advance width="573"/>
  <unicode hex="004A"/>
  <outline>
    <contour>
      <point x="372" y="-8"/>
      <point x="456" y="70"/>
      <point x="456" y="188" type="curve" smooth="yes"/>
      <point x="456" y="700" type="line"/>
      <point x="434" y="700" type="line"/>
      <point x="434" y="187" type="line" smooth="yes"/>
      <point x="434" y="83"/>
      <point x="359" y="13"/>
      <point x="246" y="13" type="curve" smooth="yes"/>
      <point x="133" y="13"/>
      <point x="58" y="83"/>
      <point x="58" y="187" type="curve" smooth="yes"/>
      <point x="58" y="251" type="line"/>
      <point x="36" y="251" type="line"/>
      <point x="36" y="188" type="line" smooth="yes"/>
      <point x="36" y="70"/>
      <point x="120" y="-8"/>
      <point x="246" y="-8" type="curve" smooth="yes"/>
    </contour>
  </outline>
</glyph>
<glyph name="L" format="1">
  <advance width="566"/>
  <unicode hex="004C"/>
  <outline>
    <contour>
      <point x="522" y="0" type="line"/>
      <point x="522" y="21" type="line"/>
      <point x="139" y="21" type="line"/>
      <point x="139" y="700" type="line"/>
      <point x="117" y="700" type="line"/>
      <point x="117" y="0" type="line"/>
    </contour>
    <contour>
      <point x="128" y="700" type="move" name="top"/>
    </contour>
    <contour>
      <point x="292" y="0" type="move" name="bottom"/>
    </contour>
  </outline>
</glyph>
<glyph name="N" format="1">
  <advance width="684"/>
  <unicode hex="004E"/>
  <outline>
    <contour>
      <point x="139" y="0" type="line"/>
      <point x="139" y="658" type="line"/>
      <point x="545" y="0" type="line"/>
      <point x="567" y="0" type="line"/>
      <point x="567" y="700" type="line"/>
      <point x="545" y="700" type="line"/>
      <point x="545" y="42" type="line"/>
      <point x="139" y="700" type="line"/>
      <point x="117" y="700" type="line"/>
      <point x="117" y="0" type="line"/>
    </contour>
    <contour>
      <point x="344" y="710" type="move" name="top"/>
    </contour>
    <contour>
      <point x="346" y="0" type="move" name="bottom"/>
    </contour>
  </outline>
</glyph>
<glyph name="O" format="1">
  <advance width="622"/>
  <unicode hex="004F"/>
  <outline>
    <contour>
      <point x="443" y="-7"/>
      <point x="532" y="80"/>
      <point x="532" y="210" type="curve" smooth="yes"/>
      <point x="532" y="489" type="line" smooth="yes"/>
      <point x="532" y="620"/>
      <point x="443" y="708"/>
      <point x="310" y="708" type="curve" smooth="yes"/>
      <point x="178" y="708"/>
      <point x="90" y="620"/>
      <point x="90" y="489" type="curve" smooth="yes"/>
      <point x="90" y="210" type="line" smooth="yes"/>
      <point x="90" y="80"/>
      <point x="178" y="-7"/>
      <point x="310" y="-7" type="curve" smooth="yes"/>
    </contour>
    <contour>
      <point x="191" y="13"/>
      <point x="112" y="91"/>
      <point x="112" y="209" type="curve" smooth="yes"/>
      <point x="112" y="490" type="line" smooth="yes"/>
      <point x="112" y="608"/>
      <point x="191" y="687"/>
      <point x="310" y="687" type="curve" smooth="yes"/>
      <point x="430" y="687"/>
      <point x="510" y="608"/>
      <point x="510" y="490" type="curve" smooth="yes"/>
      <point x="510" y="209" type="line" smooth="yes"/>
      <point x="510" y="91"/>
      <point x="430" y="13"/>
      <point x="310" y="13" type="curve" smooth="yes"/>
    </contour>
    <contour>
      <point x="310" y="708" type="move" name="top"/>
    </contour>
  </outline>
</glyph>
<glyph name="U" format="1">
  <advance width="661"/>
  <unicode hex="0055"/>
  <outline>
    <contour>
      <point x="464" y="-8"/>
      <point x="553" y="77"/>
      <point x="553" y="205" type="curve" smooth="yes"/>
      <point x="553" y="700" type="line"/>
      <point x="531" y="700" type="line"/>
      <point x="531" y="202" type="line" smooth="yes"/>
      <point x="531" y="89"/>
      <point x="451" y="13"/>
      <point x="330" y="13" type="curve" smooth="yes"/>
      <point x="210" y="13"/>
      <point x="130" y="89"/>
      <point x="130" y="202" type="curve" smooth="yes"/>
      <point x="130" y="700" type="line"/>
      <point x="108" y="700" type="line"/>
      <point x="108" y="205" type="line" smooth="yes"/>
      <point x="108" y="77"/>
      <point x="197" y="-8"/>
      <point x="330" y="-8" type="curve" smooth="yes"/>
    </contour>
    <contour>
      <point x="330" y="712" type="move" name="top"/>
    </contour>
    <contour>
      <point x="332" y="0" type="move" name="bottom"/>
    </contour>
  </outline>
</glyph>
<glyph name="grave" format="1">
  <advance width="169"/>
  <unicode hex="0060"/>
  <outline>
    <component base="gravecomb" xOffset="36"/>
    <contour>
      <point x="84" y="500" type="move" name="_top"/>
    </contour>
  </outline>
</glyph>
<glyph name="f" format="1">
  <advance width="335"/>
  <unicode hex="0066"/>
  <outline>
    <contour>
      <point x="140" y="0" type="line"/>
      <point x="140" y="540" type="line" smooth="yes"/>
      <point x="140" y="627"/>
      <point x="159" y="679"/>
      <point x="254" y="679" type="curve" smooth="yes"/>
      <point x="285" y="679" type="line"/>
      <point x="285" y="700" type="line"/>
      <point x="254" y="700" type="line" smooth="yes"/>
      <point x="146" y="700"/>
      <point x="119" y="640"/>
      <point x="119" y="540" type="curve" smooth="yes"/>
      <point x="119" y="0" type="line"/>
    </contour>
    <contour>
      <point x="280" y="479" type="line"/>
      <point x="280" y="500" type="line"/>
      <point x="40" y="500" type="line"/>
      <point x="40" y="479" type="line"/>
    </contour>
  </outline>
</glyph>
<glyph name="j" format="1">
  <advance width="220"/>
  <unicode hex="006A"/>
  <outline>
    <contour>
      <point x="68" y="-211"/>
      <point x="121" y="-159"/>
      <point x="121" y="-74" type="curve" smooth="yes"/>
      <point x="121" y="500" type="line"/>
      <point x="99" y="500" type="line"/>
      <point x="99" y="-74" type="line" smooth="yes"/>
      <point x="99" y="-146"/>
      <point x="55" y="-190"/>
      <point x="-18" y="-190" type="curve"/>
      <point x="-18" y="-211" type="line"/>
    </contour>
    <contour>
      <point x="131" y="620"/>
      <point x="143" y="631"/>
      <point x="143" y="650" type="curve" smooth="yes"/>
      <point x="143" y="669"/>
      <point x="131" y="679"/>
      <point x="110" y="679" type="curve" smooth="yes"/>
      <point x="92" y="679"/>
      <point x="79" y="669"/>
      <point x="79" y="650" type="curve" smooth="yes"/>
      <point x="79" y="631"/>
      <point x="92" y="620"/>
      <point x="110" y="620" type="curve" smooth="yes"/>
    </contour>
  </outline>
</glyph>
<glyph name="cent" format="1">
  <advance width="508"/>
  <unicode hex="00A2"/>
  <outline>
    <contour>
      <point x="264" y="590" type="line"/>
      <point x="264" y="680" type="line"/>
      <point x="242" y="680" type="line"/>
      <point x="242" y="590" type="line"/>
    </contour>
    <contour>
      <point x="264" y="0" type="line"/>
      <point x="264" y="90" type="line"/>
      <point x="242" y="90" type="line"/>
      <point x="242" y="0" type="line"/>
    </contour>
    <component base="c" yOffset="90"/>
  </outline>
</glyph>
<glyph name="sterling" format="1">
  <advance width="602"/>
  <unicode hex="00A3"/>
  <outline>
    <contour>
      <point x="564" y="0" type="line"/>
      <point x="564" y="20" type="line"/>
      <point x="179" y="20" type="line"/>
      <point x="212" y="48"/>
      <point x="234" y="102"/>
      <point x="234" y="165" type="curve" smooth="yes"/>
      <point x="234" y="527" type="line" smooth="yes"/>
      <point x="234" y="626"/>
      <point x="288" y="684"/>
      <point x="386" y="688" type="curve" smooth="yes"/>
      <point x="461" y="691"/>
      <point x="509" y="656"/>
      <point x="531" y="578" type="curve"/>
      <point x="553" y="584" type="line"/>
      <point x="528" y="670"/>
      <point x="470" y="712"/>
      <point x="386" y="708" type="curve" smooth="yes"/>
      <point x="276" y="703"/>
      <point x="212" y="636"/>
      <point x="212" y="527" type="curve" smooth="yes"/>
      <point x="212" y="162" type="line" smooth="yes"/>
      <point x="212" y="93"/>
      <point x="182" y="35"/>
      <point x="146" y="20" type="curve"/>
      <point x="146" y="0" type="line"/>
    </contour>
    <contour>
      <point x="444" y="323" type="line"/>
      <point x="444" y="343" type="line"/>
      <point x="117" y="343" type="line"/>
      <point x="117" y="323" type="line"/>
    </contour>
  </outline>
</glyph>
<glyph name="yen" format="1">
  <advance width="690"/>
  <unicode hex="00A5"/>
  <outline>
    <contour>
      <point x="510" y="323" type="line"/>
      <point x="510" y="343" type="line"/>
      <point x="174" y="343" type="line"/>
      <point x="174" y="323" type="line"/>
    </contour>
    <contour>
      <point x="510" y="193" type="line"/>
      <point x="510" y="213" type="line"/>
      <point x="174" y="213" type="line"/>
      <point x="174" y="193" type="line"/>
    </contour>
    <component base="Y" xOffset="79"/>
  </outline>
</glyph>
<glyph name="section" format="1">
  <advance width="430"/>
  <unicode hex="00A7"/>
  <outline>
    <contour>
      <point x="302" y="-207"/>
      <point x="358" y="-140"/>
      <point x="358" y="-57" type="curve" smooth="yes"/>
      <point x="358" y="21"/>
      <point x="310" y="71"/>
      <point x="250" y="90" type="curve"/>
      <point x="289" y="94"/>
      <point x="321" y="118"/>
      <point x="340" y="152" type="curve" smooth="yes"/>
      <point x="356" y="180"/>
      <point x="364" y="215"/>
      <point x="364" y="253" type="curve" smooth="yes"/>
      <point x="364" y="298"/>
      <point x="352" y="330"/>
      <point x="335" y="353" type="curve" smooth="yes"/>
      <point x="304" y="394"/>
      <point x="259" y="408"/>
      <point x="234" y="416" type="curve" smooth="yes"/>
      <point x="156" y="441"/>
      <point x="102" y="480"/>
      <point x="102" y="554" type="curve" smooth="yes"/>
      <point x="102" y="622"/>
      <point x="147" y="687"/>
      <point x="220" y="687" type="curve" smooth="yes"/>
      <point x="285" y="687"/>
      <point x="333" y="633"/>
      <point x="333" y="559" type="curve" smooth="yes"/>
      <point x="333" y="538" type="line"/>
      <point x="355" y="538" type="line"/>
      <point x="355" y="559" type="line"/>
      <point x="353" y="644"/>
      <point x="299" y="707"/>
      <point x="219" y="707" type="curve" smooth="yes"/>
      <point x="134" y="707"/>
      <point x="80" y="636"/>
      <point x="80" y="558" type="curve" smooth="yes"/>
      <point x="80" y="486"/>
      <point x="130" y="425"/>
      <point x="193" y="406" type="curve"/>
      <point x="151" y="399"/>
      <point x="117" y="375"/>
      <point x="95" y="341" type="curve" smooth="yes"/>
      <point x="79" y="315"/>
      <point x="70" y="282"/>
      <point x="70" y="245" type="curve" smooth="yes"/>
      <point x="70" y="211"/>
      <point x="78" y="181"/>
      <point x="90" y="159" type="curve" smooth="yes"/>
      <point x="115" y="112"/>
      <point x="160" y="94"/>
      <point x="204" y="81" type="curve" smooth="yes"/>
      <point x="253" y="67"/>
      <point x="335" y="41"/>
      <point x="335" y="-55" type="curve" smooth="yes"/>
      <point x="335" y="-128"/>
      <point x="288" y="-187"/>
      <point x="219" y="-187" type="curve" smooth="yes"/>
      <point x="151" y="-187"/>
      <point x="106" y="-133"/>
      <point x="105" y="-47" type="curve"/>
      <point x="105" y="-26" type="line"/>
      <point x="83" y="-26" type="line"/>
      <point x="83" y="-47" type="line" smooth="yes"/>
      <point x="83" y="-146"/>
      <point x="137" y="-207"/>
      <point x="218" y="-207" type="curve" smooth="yes"/>
    </contour>
    <contour>
      <point x="169" y="107"/>
      <point x="134" y="128"/>
      <point x="110" y="165" type="curve" smooth="yes"/>
      <point x="96" y="187"/>
      <point x="92" y="213"/>
      <point x="92" y="242" type="curve" smooth="yes"/>
      <point x="92" y="272"/>
      <point x="98" y="298"/>
      <point x="111" y="321" type="curve" smooth="yes"/>
      <point x="132" y="359"/>
      <point x="172" y="388"/>
      <point x="218" y="388" type="curve" smooth="yes"/>
      <point x="261" y="388"/>
      <point x="292" y="369"/>
      <point x="315" y="340" type="curve" smooth="yes"/>
      <point x="333" y="318"/>
      <point x="342" y="286"/>
      <point x="342" y="247" type="curve" smooth="yes"/>
      <point x="342" y="216"/>
      <point x="336" y="187"/>
      <point x="323" y="164" type="curve" smooth="yes"/>
      <point x="302" y="127"/>
      <point x="266" y="107"/>
      <point x="216" y="107" type="curve" smooth="yes"/>
    </contour>
  </outline>
</glyph>
<glyph name="degree" format="1">
  <advance width="384"/>
  <unicode hex="00B0"/>
  <outline>
    <contour>
      <point x="279" y="498"/>
      <point x="348" y="566"/>
      <point x="348" y="653" type="curve" smooth="yes"/>
      <point x="348" y="740"/>
      <point x="279" y="808"/>
      <point x="192" y="808" type="curve" smooth="yes"/>
      <point x="105" y="808"/>
      <point x="36" y="740"/>
      <point x="36" y="653" type="curve" smooth="yes"/>
      <point x="36" y="566"/>
      <point x="105" y="498"/>
      <point x="192" y="498" type="curve" smooth="yes"/>
    </contour>
    <contour>
      <point x="117" y="519"/>
      <point x="58" y="578"/>
      <point x="58" y="653" type="curve" smooth="yes"/>
      <point x="58" y="728"/>
      <point x="117" y="787"/>
      <point x="192" y="787" type="curve" smooth="yes"/>
      <point x="267" y="787"/>
      <point x="326" y="728"/>
      <point x="326" y="653" type="curve" smooth="yes"/>
      <point x="326" y="578"/>
      <point x="267" y="519"/>
      <point x="192" y="519" type="curve" smooth="yes"/>
    </contour>
  </outline>
</glyph>
<glyph name="cedilla" format="1">
  <advance width="120"/>
  <unicode hex="00B8"/>
  <outline>
    <component base="ogonek" xOffset="120" xScale="-1"/>
    <contour>
      <point x="50" y="-3" type="move" name="_bottom"/>
    </contour>
  </outline>
</glyph>
<glyph name="AE" format="1">
  <advance width="894"/>
  <unicode hex="00C6"/>
  <outline>
    <contour>
      <point x="63" y="0" type="line"/>
      <point x="431" y="684" type="line"/>
      <point x="431" y="0" type="line"/>
      <point x="822" y="0" type="line"/>
      <point x="822" y="21" type="line"/>
      <point x="453" y="21" type="line"/>
      <point x="453" y="679" type="line"/>
      <point x="822" y="679" type="line"/>
      <point x="822" y="700" type="line"/>
      <point x="417" y="700" type="line"/>
      <point x="38" y="0" type="line"/>
    </contour>
    <contour>
      <point x="444" y="155" type="line"/>
      <point x="444" y="176" type="line"/>
      <point x="143" y="176" type="line"/>
      <point x="138" y="155" type="line"/>
    </contour>
    <contour>
      <point x="713" y="340" type="line"/>
      <point x="713" y="361" type="line"/>
      <point x="442" y="361" type="line"/>
      <point x="442" y="340" type="line"/>
    </contour>
  </outline>
</glyph>
<glyph name="caron" format="1">
  <advance width="288"/>
  <unicode hex="02C7"/>
  <outline>
    <contour>
      <point x="154" y="570" type="line"/>
      <point x="252" y="695" type="line"/>
      <point x="226" y="695" type="line"/>
      <point x="145" y="590" type="line"/>
      <point x="62" y="695" type="line"/>
      <point x="36" y="695" type="line"/>
      <point x="134" y="570" type="line"/>
    </contour>
    <contour>
      <point x="145" y="503" type="move" name="_top"/>
    </contour>
  </outline>
</glyph>
<glyph name="ogonek" format="1">
  <advance width="120"/>
  <unicode hex="02DB"/>
  <outline>
    <contour>
      <point x="114" y="-158" type="line"/>
      <point x="74" y="-168"/>
      <point x="32" y="-162"/>
      <point x="24" y="-118" type="curve" smooth="yes"/>
      <point x="16" y="-73"/>
      <point x="51" y="-30"/>
      <point x="88" y="0" type="curve"/>
      <point x="66" y="0" type="line"/>
      <point x="8" y="-42"/>
      <point x="-6" y="-85"/>
      <point x="2" y="-124" type="curve" smooth="yes"/>
      <point x="14" y="-182"/>
      <point x="73" y="-189"/>
      <point x="120" y="-178" type="curve"/>
    </contour>
    <contour>
      <point x="70" y="-4" type="move" name="_bottom"/>
    </contour>
  </outline>
</glyph>
<glyph name="tildecomb" format="1">
  <advance width="264"/>
  <unicode hex="0303"/>
  <outline>
    <contour>
      <point x="208" y="604"/>
      <point x="244" y="617"/>
      <point x="264" y="658" type="curve"/>
      <point x="247" y="667" type="line"/>
      <point x="227" y="633"/>
      <point x="207" y="626"/>
      <point x="186" y="626" type="curve" smooth="yes"/>
      <point x="169" y="626"/>
      <point x="153" y="638"/>
      <point x="136" y="649" type="curve" smooth="yes"/>
      <point x="119" y="660"/>
      <point x="102" y="672"/>
      <point x="78" y="672" type="curve" smooth="yes"/>
      <point x="50" y="672"/>
      <point x="23" y="660"/>
      <point x="0" y="624" type="curve"/>
      <point x="17" y="613" type="line"/>
      <point x="39" y="645"/>
      <point x="55" y="650"/>
      <point x="78" y="650" type="curve" smooth="yes"/>
      <point x="98" y="650"/>
      <point x="111" y="640"/>
      <point x="127" y="628" type="curve" smooth="yes"/>
      <point x="142" y="617"/>
      <point x="161" y="604"/>
      <point x="185" y="604" type="curve" smooth="yes"/>
    </contour>
    <contour>
      <point x="123" y="500" type="move" name="_top"/>
    </contour>
  </outline>
</glyph>
<glyph name="macroncomb" format="1">
  <advance width="251"/>
  <unicode hex="0304"/>
  <outline>
    <contour>
      <point x="251" y="605" type="line"/>
      <point x="251" y="626" type="line"/>
      <point x="0" y="626" type="line"/>
      <point x="0" y="605" type="line"/>
    </contour>
    <contour>
      <point x="125" y="500" type="move" name="_top"/>
    </contour>
  </outline>
</glyph>
<glyph name="commaturnedabovecomb" format="1">
  <advance width="169"/>
  <unicode hex="0312"/>
  <outline>
    <component base="acutecomb" xOffset="227" yOffset="1272" xScale="-1" yScale="-1"/>
    <contour>
      <point x="47" y="500" type="move" name="_top"/>
    </contour>
  </outline>
</glyph>
<glyph name="endash" format="1">
  <advance width="432"/>
  <unicode hex="2013"/>
  <outline>
    <contour>
      <point x="386" y="271" type="line"/>
      <point x="386" y="292" type="line"/>
      <point x="46" y="292" type="line"/>
      <point x="46" y="271" type="line"/>
    </contour>
  </outline>
</glyph>
<glyph name="euro" format="1">
  <advance width="637"/>
  <unicode hex="20AC"/>
  <outline>
    <contour>
      <point x="474" y="-9"/>
      <point x="547" y="58"/>
      <point x="556" y="159" type="curve"/>
      <point x="534" y="162" type="line"/>
      <point x="528" y="71"/>
      <point x="462" y="12"/>
      <point x="366" y="12" type="curve" smooth="yes"/>
      <point x="265" y="12"/>
      <point x="197" y="78"/>
      <point x="197" y="176" type="curve" smooth="yes"/>
      <point x="197" y="524" type="line" smooth="yes"/>
      <point x="197" y="622"/>
      <point x="265" y="687"/>
      <point x="366" y="687" type="curve" smooth="yes"/>
      <point x="464" y="687"/>
      <point x="530" y="626"/>
      <point x="534" y="533" type="curve"/>
      <point x="556" y="537" type="line"/>
      <point x="550" y="640"/>
      <point x="476" y="708"/>
      <point x="366" y="708" type="curve" smooth="yes"/>
      <point x="251" y="708"/>
      <point x="175" y="634"/>
      <point x="175" y="523" type="curve" smooth="yes"/>
      <point x="175" y="178" type="line" smooth="yes"/>
      <point x="175" y="66"/>
      <point x="251" y="-9"/>
      <point x="366" y="-9" type="curve" smooth="yes"/>
    </contour>
    <contour>
      <point x="439" y="280" type="line"/>
      <point x="449" y="301" type="line"/>
      <point x="90" y="301" type="line"/>
      <point x="90" y="280" type="line"/>
    </contour>
    <contour>
      <point x="473" y="395" type="line"/>
      <point x="483" y="416" type="line"/>
      <point x="90" y="416" type="line"/>
      <point x="90" y="395" type="line"/>
    </contour>
    <contour>
      <point x="366" y="708" type="move" name="top"/>
    </contour>
  </outline>
</glyph>
<glyph name="increment" format="1">
  <advance width="622"/>
  <unicode hex="2206"/>
  <outline>
    <contour>
      <point x="584" y="0" type="line"/>
      <point x="584" y="20" type="line"/>
      <point x="323" y="700" type="line"/>
      <point x="299" y="700" type="line"/>
      <point x="38" y="21" type="line"/>
      <point x="38" y="0" type="line"/>
    </contour>
    <contour>
      <point x="311" y="673" type="line"/>
      <point x="562" y="20" type="line"/>
      <point x="60" y="20" type="line"/>
    </contour>
  </outline>
</glyph>
<glyph name="product" format="1">
  <advance width="669"/>
  <unicode hex="220F"/>
  <outline>
    <contour>
      <point x="552" y="-200" type="line"/>
      <point x="552" y="800" type="line"/>
      <point x="530" y="800" type="line"/>
      <point x="530" y="-200" type="line"/>
    </contour>
    <contour>
      <point x="139" y="-200" type="line"/>
      <point x="139" y="800" type="line"/>
      <point x="117" y="800" type="line"/>
      <point x="117" y="-200" type="line"/>
    </contour>
    <contour>
      <point x="552" y="779" type="line"/>
      <point x="552" y="800" type="line"/>
      <point x="117" y="800" type="line"/>
      <point x="117" y="779" type="line"/>
    </contour>
  </outline>
</glyph>
<glyph name="minus" format="1">
  <advance width="510"/>
  <unicode hex="2212"/>
  <outline>
    <contour>
      <point x="464" y="312" type="line"/>
      <point x="464" y="332" type="line"/>
      <point x="46" y="332" type="line"/>
      <point x="46" y="312" type="line"/>
    </contour>
  </outline>
</glyph>
<glyph name="integral" format="1">
  <advance width="403"/>
  <unicode hex="222B"/>
  <outline>
    <contour>
      <point x="166" y="-200"/>
      <point x="207" y="-170"/>
      <point x="207" y="-40" type="curve" smooth="yes"/>
      <point x="207" y="540" type="line" smooth="yes"/>
      <point x="207" y="627"/>
      <point x="227" y="679"/>
      <point x="321" y="679" type="curve" smooth="yes"/>
      <point x="353" y="679" type="line"/>
      <point x="352" y="700" type="line"/>
      <point x="227" y="700"/>
      <point x="185" y="670"/>
      <point x="185" y="540" type="curve" smooth="yes"/>
      <point x="185" y="-40" type="line" smooth="yes"/>
      <point x="185" y="-127"/>
      <point x="166" y="-179"/>
      <point x="72" y="-179" type="curve" smooth="yes"/>
      <point x="40" y="-179" type="line"/>
      <point x="41" y="-200" type="line"/>
    </contour>
  </outline>
</glyph>
<glyph name="notequal" format="1">
  <advance width="510"/>
  <unicode hex="2260"/>
  <outline>
    <contour>
      <point x="141" y="119" type="line"/>
      <point x="363" y="563" type="line"/>
      <point x="341" y="563" type="line"/>
      <point x="119" y="119" type="line"/>
    </contour>
    <component base="equal"/>
  </outline>
</glyph>
<glyph name="ae.sc" format="1">
  <advance width="772"/>
  <outline>
    <contour>
      <point x="62" y="0" type="line"/>
      <point x="373" y="558" type="line"/>
      <point x="373" y="0" type="line"/>
      <point x="711" y="0" type="line"/>
      <point x="711" y="21" type="line"/>
      <point x="396" y="21" type="line"/>
      <point x="396" y="555" type="line"/>
      <point x="711" y="555" type="line"/>
      <point x="711" y="576" type="line"/>
      <point x="361" y="576" type="line"/>
      <point x="37" y="0" type="line"/>
    </contour>
    <contour>
      <point x="385" y="126" type="line"/>
      <point x="386" y="147" type="line"/>
      <point x="128" y="147" type="line"/>
      <point x="123" y="126" type="line"/>
    </contour>
    <contour>
      <point x="617" y="278" type="line"/>
      <point x="617" y="299" type="line"/>
      <point x="384" y="299" type="line"/>
      <point x="384" y="278" type="line"/>
    </contour>
  </outline>
</glyph>
<glyph name="d.sc" format="1">
  <advance width="529"/>
  <outline>
    <contour>
      <point x="301" y="0" type="line" smooth="yes"/>
      <point x="403" y="0"/>
      <point x="467" y="57"/>
      <point x="467" y="150" type="curve" smooth="yes"/>
      <point x="467" y="427" type="line" smooth="yes"/>
      <point x="467" y="519"/>
      <point x="403" y="576"/>
      <point x="301" y="576" type="curve" smooth="yes"/>
      <point x="99" y="576" type="line"/>
      <point x="99" y="0" type="line"/>
    </contour>
    <contour>
      <point x="121" y="555" type="line"/>
      <point x="303" y="555" type="line" smooth="yes"/>
      <point x="390" y="555"/>
      <point x="445" y="506"/>
      <point x="445" y="426" type="curve" smooth="yes"/>
      <point x="445" y="149" type="line" smooth="yes"/>
      <point x="445" y="70"/>
      <point x="390" y="21"/>
      <point x="303" y="21" type="curve" smooth="yes"/>
      <point x="121" y="21" type="line"/>
    </contour>
    <contour>
      <point x="272" y="580" type="move" name="top"/>
    </contour>
  </outline>
</glyph>
<glyph name="eth.sc" format="1">
  <advance width="593"/>
  <outline>
    <contour>
      <point x="318" y="290" type="line"/>
      <point x="318" y="309" type="line"/>
      <point x="99" y="309" type="line"/>
      <point x="99" y="290" type="line"/>
    </contour>
    <component base="d.sc" xOffset="64"/>
  </outline>
</glyph>
<glyph name="f.sc" format="1">
  <advance width="490"/>
  <outline>
    <contour>
      <point x="121" y="0" type="line"/>
      <point x="121" y="555" type="line"/>
      <point x="468" y="555" type="line"/>
      <point x="468" y="576" type="line"/>
      <point x="99" y="576" type="line"/>
      <point x="99" y="0" type="line"/>
    </contour>
    <contour>
      <point x="375" y="278" type="line"/>
      <point x="375" y="299" type="line"/>
      <point x="110" y="299" type="line"/>
      <point x="110" y="278" type="line"/>
    </contour>
  </outline>
</glyph>
<glyph name="f_f_i.liga" format="1">
  <advance width="905"/>
  <outline>
    <contour>
      <point x="140" y="0" type="line"/>
      <point x="140" y="540" type="line" smooth="yes"/>
      <point x="140" y="627"/>
      <point x="159" y="679"/>
      <point x="254" y="679" type="curve" smooth="yes"/>
      <point x="285" y="679" type="line"/>
      <point x="285" y="700" type="line"/>
      <point x="254" y="700" type="line" smooth="yes"/>
      <point x="146" y="700"/>
      <point x="119" y="640"/>
      <point x="119" y="540" type="curve" smooth="yes"/>
      <point x="119" y="0" type="line"/>
    </contour>
    <contour>
      <point x="280" y="479" type="line"/>
      <point x="280" y="500" type="line"/>
      <point x="40" y="500" type="line"/>
      <point x="40" y="479" type="line"/>
    </contour>
    <contour>
      <point x="475" y="0" type="line"/>
      <point x="475" y="540" type="line" smooth="yes"/>
      <point x="475" y="627"/>
      <point x="494" y="679"/>
      <point x="589" y="679" type="curve" smooth="yes"/>
      <point x="620" y="679" type="line"/>
      <point x="620" y="700" type="line"/>
      <point x="589" y="700" type="line" smooth="yes"/>
      <point x="481" y="700"/>
      <point x="454" y="640"/>
      <point x="454" y="540" type="curve" smooth="yes"/>
      <point x="454" y="0" type="line"/>
    </contour>
    <contour>
      <point x="615" y="479" type="line"/>
      <point x="615" y="500" type="line"/>
      <point x="375" y="500" type="line"/>
      <point x="375" y="479" type="line"/>
    </contour>
    <contour>
      <point x="799" y="0" type="line"/>
      <point x="799" y="500" type="line"/>
      <point x="777" y="500" type="line"/>
      <point x="777" y="0" type="line"/>
    </contour>
    <contour>
      <point x="806" y="620"/>
      <point x="819" y="633"/>
      <point x="819" y="650" type="curve" smooth="yes"/>
      <point x="819" y="666"/>
      <point x="806" y="679"/>
      <point x="788" y="679" type="curve" smooth="yes"/>
      <point x="770" y="679"/>
      <point x="756" y="666"/>
      <point x="756" y="650" type="curve" smooth="yes"/>
      <point x="756" y="633"/>
      <point x="770" y="620"/>
      <point x="788" y="620" type="curve" smooth="yes"/>
    </contour>
  </outline>
</glyph>
<glyph name="four.dnom" format="1">
  <advance width="315"/>
  <outline>
    <contour>
      <point x="275" y="119" type="line"/>
      <point x="275" y="140" type="line"/>
      <point x="58" y="140" type="line"/>
      <point x="190" y="420" type="line"/>
      <point x="167" y="420" type="line"/>
      <point x="34" y="138" type="line"/>
      <point x="34" y="119" type="line"/>
    </contour>
    <contour>
      <point x="242" y="0" type="line"/>
      <point x="242" y="255" type="line"/>
      <point x="219" y="255" type="line"/>
      <point x="219" y="0" type="line"/>
    </contour>
  </outline>
</glyph>
<glyph name="h.sc" format="1">
  <advance width="574"/>
  <outline>
    <contour>
      <point x="476" y="0" type="line"/>
      <point x="476" y="576" type="line"/>
      <point x="454" y="576" type="line"/>
      <point x="454" y="0" type="line"/>
    </contour>
    <contour>
      <point x="121" y="0" type="line"/>
      <point x="121" y="576" type="line"/>
      <point x="99" y="576" type="line"/>
      <point x="99" y="0" type="line"/>
    </contour>
    <contour>
      <point x="459" y="278" type="line"/>
      <point x="459" y="299" type="line"/>
      <point x="116" y="299" type="line"/>
      <point x="116" y="278" type="line"/>
    </contour>
    <contour>
      <point x="288" y="420" type="move" name="strokelong"/>
    </contour>
  </outline>
</glyph>
<glyph name="j.sc" format="1">
  <advance width="491"/>
  <outline>
    <contour>
      <point x="319" y="-7"/>
      <point x="392" y="59"/>
      <point x="392" y="165" type="curve" smooth="yes"/>
      <point x="392" y="576" type="line"/>
      <point x="370" y="576" type="line"/>
      <point x="370" y="164" type="line" smooth="yes"/>
      <point x="370" y="71"/>
      <point x="306" y="14"/>
      <point x="211" y="14" type="curve" smooth="yes"/>
      <point x="115" y="14"/>
      <point x="52" y="71"/>
      <point x="52" y="164" type="curve" smooth="yes"/>
      <point x="52" y="207" type="line"/>
      <point x="30" y="207" type="line"/>
      <point x="30" y="165" type="line" smooth="yes"/>
      <point x="30" y="59"/>
      <point x="102" y="-7"/>
      <point x="211" y="-7" type="curve" smooth="yes"/>
    </contour>
  </outline>
</glyph>
<glyph name="k.sc" format="1">
  <advance width="514"/>
  <outline>
    <contour>
      <point x="121" y="0" type="line"/>
      <point x="121" y="226" type="line"/>
      <point x="224" y="325" type="line"/>
      <point x="465" y="0" type="line"/>
      <point x="492" y="0" type="line"/>
      <point x="240" y="342" type="line"/>
      <point x="472" y="576" type="line"/>
      <point x="446" y="576" type="line"/>
      <point x="121" y="255" type="line"/>
      <point x="121" y="576" type="line"/>
      <point x="99" y="576" type="line"/>
      <point x="99" y="0" type="line"/>
    </contour>
    <contour>
      <point x="279" y="0" type="move" name="bottom"/>
    </contour>
  </outline>
</glyph>
<glyph name="o.sc" format="1">
  <advance width="533"/>
  <outline>
    <contour>
      <point x="380" y="-6"/>
      <point x="457" y="66"/>
      <point x="457" y="183" type="curve" smooth="yes"/>
      <point x="457" y="392" type="line" smooth="yes"/>
      <point x="457" y="510"/>
      <point x="380" y="583"/>
      <point x="266" y="583" type="curve" smooth="yes"/>
      <point x="151" y="583"/>
      <point x="76" y="510"/>
      <point x="76" y="392" type="curve" smooth="yes"/>
      <point x="76" y="183" type="line" smooth="yes"/>
      <point x="76" y="66"/>
      <point x="151" y="-6"/>
      <point x="266" y="-6" type="curve" smooth="yes"/>
    </contour>
    <contour>
      <point x="164" y="14"/>
      <point x="98" y="77"/>
      <point x="98" y="183" type="curve" smooth="yes"/>
      <point x="98" y="393" type="line" smooth="yes"/>
      <point x="98" y="498"/>
      <point x="164" y="562"/>
      <point x="266" y="562" type="curve" smooth="yes"/>
      <point x="367" y="562"/>
      <point x="435" y="498"/>
      <point x="435" y="393" type="curve" smooth="yes"/>
      <point x="435" y="183" type="line" smooth="yes"/>
      <point x="435" y="77"/>
      <point x="367" y="14"/>
      <point x="266" y="14" type="curve" smooth="yes"/>
    </contour>
    <contour>
      <point x="266" y="583" type="move" name="top"/>
    </contour>
  </outline>
</glyph>
<glyph name="oe.sc" format="1">
  <advance width="782"/>
  <outline>
    <contour>
      <point x="352" y="-6"/>
      <point x="419" y="63"/>
      <point x="419" y="166" type="curve" smooth="yes"/>
      <point x="419" y="409" type="line" smooth="yes"/>
      <point x="419" y="513"/>
      <point x="352" y="583"/>
      <point x="247" y="583" type="curve" smooth="yes"/>
      <point x="145" y="583"/>
      <point x="76" y="512"/>
      <point x="76" y="408" type="curve" smooth="yes"/>
      <point x="76" y="167" type="line" smooth="yes"/>
      <point x="76" y="64"/>
      <point x="145" y="-6"/>
      <point x="247" y="-6" type="curve" smooth="yes"/>
    </contour>
    <contour>
      <point x="159" y="14"/>
      <point x="98" y="75"/>
      <point x="98" y="166" type="curve" smooth="yes"/>
      <point x="98" y="409" type="line" smooth="yes"/>
      <point x="98" y="500"/>
      <point x="159" y="562"/>
      <point x="248" y="562" type="curve" smooth="yes"/>
      <point x="340" y="562"/>
      <point x="402" y="500"/>
      <point x="402" y="409" type="curve" smooth="yes"/>
      <point x="402" y="166" type="line" smooth="yes"/>
      <point x="402" y="75"/>
      <point x="340" y="14"/>
      <point x="248" y="14" type="curve" smooth="yes"/>
    </contour>
    <contour>
      <point x="628" y="278" type="line"/>
      <point x="628" y="299" type="line"/>
      <point x="413" y="299" type="line"/>
      <point x="413" y="278" type="line"/>
    </contour>
    <contour>
      <point x="721" y="0" type="line"/>
      <point x="721" y="21" type="line"/>
      <point x="424" y="21" type="line"/>
      <point x="424" y="555" type="line"/>
      <point x="721" y="555" type="line"/>
      <point x="721" y="576" type="line"/>
      <point x="402" y="576" type="line"/>
      <point x="402" y="0" type="line"/>
    </contour>
    <contour>
      <point x="403" y="576" type="move" name="top"/>
    </contour>
  </outline>
</glyph>
<glyph name="p.sc" format="1">
  <advance width="503"/>
  <outline>
    <contour>
      <point x="113" y="0" type="line"/>
      <point x="113" y="557" type="line"/>
      <point x="314" y="557" type="line" smooth="yes"/>
      <point x="391" y="557"/>
      <point x="444" y="505"/>
      <point x="444" y="427" type="curve" smooth="yes"/>
      <point x="444" y="350"/>
      <point x="391" y="298"/>
      <point x="314" y="298" type="curve" smooth="yes"/>
      <point x="108" y="298" type="line"/>
      <point x="108" y="278" type="line"/>
      <point x="312" y="278" type="line" smooth="yes"/>
      <point x="404" y="278"/>
      <point x="466" y="337"/>
      <point x="466" y="427" type="curve" smooth="yes"/>
      <point x="466" y="517"/>
      <point x="404" y="578"/>
      <point x="312" y="578" type="curve" smooth="yes"/>
      <point x="91" y="578" type="line"/>
      <point x="91" y="0" type="line"/>
    </contour>
  </outline>
</glyph>
<glyph name="q.sc" format="1">
  <advance width="485"/>
  <outline>
    <contour>
      <point x="352" y="-7"/>
      <point x="425" y="63"/>
      <point x="425" y="176" type="curve" smooth="yes"/>
      <point x="425" y="400" type="line" smooth="yes"/>
      <point x="425" y="513"/>
      <point x="352" y="583"/>
      <point x="243" y="583" type="curve" smooth="yes"/>
      <point x="133" y="583"/>
      <point x="60" y="513"/>
      <point x="60" y="400" type="curve" smooth="yes"/>
      <point x="60" y="176" type="line" smooth="yes"/>
      <point x="60" y="63"/>
      <point x="133" y="-7"/>
      <point x="243" y="-7" type="curve" smooth="yes"/>
    </contour>
    <contour>
      <point x="254" y="-103" type="line"/>
      <point x="254" y="3" type="line"/>
      <point x="232" y="3" type="line"/>
      <point x="232" y="-103" type="line"/>
    </contour>
    <contour>
      <point x="146" y="14"/>
      <point x="82" y="75"/>
      <point x="82" y="175" type="curve" smooth="yes"/>
      <point x="82" y="401" type="line" smooth="yes"/>
      <point x="82" y="501"/>
      <point x="146" y="562"/>
      <point x="243" y="562" type="curve" smooth="yes"/>
      <point x="339" y="562"/>
      <point x="403" y="501"/>
      <point x="403" y="401" type="curve" smooth="yes"/>
      <point x="403" y="175" type="line" smooth="yes"/>
      <point x="403" y="75"/>
      <point x="339" y="14"/>
      <point x="243" y="14" type="curve" smooth="yes"/>
    </contour>
  </outline>
</glyph>
<glyph name="r.sc" format="1">
  <advance width="523"/>
  <outline>
    <contour>
      <point x="121" y="0" type="line"/>
      <point x="121" y="557" type="line"/>
      <point x="314" y="557" type="line" smooth="yes"/>
      <point x="391" y="557"/>
      <point x="444" y="505"/>
      <point x="444" y="428" type="curve" smooth="yes"/>
      <point x="444" y="353"/>
      <point x="391" y="302"/>
      <point x="314" y="302" type="curve" smooth="yes"/>
      <point x="116" y="302" type="line"/>
      <point x="116" y="281" type="line"/>
      <point x="312" y="281" type="line" smooth="yes"/>
      <point x="404" y="281"/>
      <point x="466" y="340"/>
      <point x="466" y="428" type="curve" smooth="yes"/>
      <point x="466" y="517"/>
      <point x="404" y="578"/>
      <point x="312" y="578" type="curve" smooth="yes"/>
      <point x="99" y="578" type="line"/>
      <point x="99" y="0" type="line"/>
    </contour>
    <contour>
      <point x="477" y="0" type="line"/>
      <point x="328" y="292" type="line"/>
      <point x="310" y="285" type="line"/>
      <point x="455" y="0" type="line"/>
    </contour>
    <contour>
      <point x="263" y="576" type="move" name="top"/>
    </contour>
    <contour>
      <point x="274" y="0" type="move" name="bottom"/>
    </contour>
  </outline>
</glyph>
<glyph name="s.sc" format="1">
  <advance width="499"/>
  <outline>
    <contour>
      <point x="379" y="-7"/>
      <point x="443" y="52"/>
      <point x="443" y="136" type="curve" smooth="yes"/>
      <point x="443" y="216"/>
      <point x="379" y="259"/>
      <point x="257" y="309" type="curve" smooth="yes"/>
      <point x="148" y="354"/>
      <point x="94" y="375"/>
      <point x="94" y="449" type="curve" smooth="yes"/>
      <point x="94" y="523"/>
      <point x="147" y="562"/>
      <point x="244" y="562" type="curve" smooth="yes"/>
      <point x="355" y="562"/>
      <point x="415" y="511"/>
      <point x="415" y="436" type="curve" smooth="yes"/>
      <point x="415" y="411" type="line"/>
      <point x="437" y="411" type="line"/>
      <point x="437" y="439" type="line" smooth="yes"/>
      <point x="437" y="525"/>
      <point x="370" y="583"/>
      <point x="246" y="583" type="curve" smooth="yes"/>
      <point x="133" y="583"/>
      <point x="72" y="536"/>
      <point x="72" y="448" type="curve" smooth="yes"/>
      <point x="72" y="363"/>
      <point x="130" y="338"/>
      <point x="242" y="291" type="curve"/>
      <point x="371" y="237"/>
      <point x="421" y="202"/>
      <point x="421" y="134" type="curve" smooth="yes"/>
      <point x="421" y="60"/>
      <point x="363" y="14"/>
      <point x="257" y="14" type="curve" smooth="yes"/>
      <point x="146" y="14"/>
      <point x="80" y="64"/>
      <point x="80" y="139" type="curve" smooth="yes"/>
      <point x="80" y="173" type="line"/>
      <point x="60" y="173" type="line"/>
      <point x="60" y="136" type="line" smooth="yes"/>
      <point x="60" y="50"/>
      <point x="133" y="-7"/>
      <point x="255" y="-7" type="curve" smooth="yes"/>
    </contour>
    <contour>
      <point x="245" y="583" type="move" name="top"/>
    </contour>
    <contour>
      <point x="250" y="-7" type="move" name="bottom"/>
    </contour>
  </outline>
</glyph>
<glyph name="two.dnom" format="1">
  <advance width="314"/>
  <outline>
    <contour>
      <point x="275" y="0" type="line"/>
      <point x="275" y="20" type="line"/>
      <point x="67" y="20" type="line"/>
      <point x="113" y="79"/>
      <point x="157" y="136"/>
      <point x="201" y="194" type="curve" smooth="yes"/>
      <point x="239" y="245"/>
      <point x="259" y="288"/>
      <point x="259" y="324" type="curve" smooth="yes"/>
      <point x="259" y="383"/>
      <point x="215" y="425"/>
      <point x="148" y="425" type="curve" smooth="yes"/>
      <point x="84" y="425"/>
      <point x="39" y="385"/>
      <point x="39" y="325" type="curve" smooth="yes"/>
      <point x="39" y="297" type="line"/>
      <point x="62" y="297" type="line"/>
      <point x="62" y="323" type="line"/>
      <point x="61" y="372"/>
      <point x="96" y="404"/>
      <point x="148" y="404" type="curve" smooth="yes"/>
      <point x="201" y="404"/>
      <point x="237" y="372"/>
      <point x="237" y="324" type="curve" smooth="yes"/>
      <point x="237" y="292"/>
      <point x="217" y="252"/>
      <point x="180" y="203" type="curve" smooth="yes"/>
      <point x="134" y="142"/>
      <point x="87" y="82"/>
      <point x="39" y="20" type="curve"/>
      <point x="39" y="0" type="line"/>
    </contour>
  </outline>
</glyph>
<glyph name="v.sc" format="1">
  <advance width="495"/>
  <outline>
    <contour>
      <point x="258" y="0" type="line"/>
      <point x="458" y="576" type="line"/>
      <point x="437" y="576" type="line"/>
      <point x="247" y="33" type="line"/>
      <point x="59" y="576" type="line"/>
      <point x="37" y="576" type="line"/>
      <point x="235" y="0" type="line"/>
    </contour>
  </outline>
</glyph>
<glyph name="w.sc" format="1">
  <advance width="762"/>
  <outline>
    <contour>
      <point x="226" y="0" type="line"/>
      <point x="379" y="541" type="line"/>
      <point x="532" y="0" type="line"/>
      <point x="554" y="0" type="line"/>
      <point x="725" y="576" type="line"/>
      <point x="702" y="576" type="line"/>
      <point x="543" y="40" type="line"/>
      <point x="390" y="576" type="line"/>
      <point x="367" y="576" type="line"/>
      <point x="216" y="40" type="line"/>
      <point x="59" y="576" type="line"/>
      <point x="37" y="576" type="line"/>
      <point x="204" y="0" type="line"/>
    </contour>
    <contour>
      <point x="379" y="576" type="move" name="top"/>
    </contour>
  </outline>
</glyph>
<glyph name="x.sc" format="1">
  <advance width="490"/>
  <outline>
    <contour>
      <point x="62" y="0" type="line"/>
      <point x="245" y="270" type="line"/>
      <point x="428" y="0" type="line"/>
      <point x="453" y="0" type="line"/>
      <point x="256" y="287" type="line"/>
      <point x="453" y="576" type="line"/>
      <point x="428" y="576" type="line"/>
      <point x="245" y="305" type="line"/>
      <point x="62" y="576" type="line"/>
      <point x="37" y="576" type="line"/>
      <point x="234" y="288" type="line"/>
      <point x="37" y="0" type="line"/>
    </contour>
  </outline>
</glyph>
<glyph name="y.sc" format="1">
  <advance width="468"/>
  <outline>
    <contour>
      <point x="244" y="0" type="line"/>
      <point x="244" y="276" type="line"/>
      <point x="431" y="576" type="line"/>
      <point x="408" y="576" type="line"/>
      <point x="233" y="296" type="line"/>
      <point x="59" y="576" type="line"/>
      <point x="37" y="576" type="line"/>
      <point x="222" y="276" type="line"/>
      <point x="222" y="0" type="line"/>
    </contour>
    <contour>
      <point x="233" y="575" type="move" name="top"/>
    </contour>
  </outline>
</glyph>
<glyph name="zero.dnom" format="1">
  <advance width="310"/>
  <outline>
    <contour>
      <point x="230" y="-8"/>
      <point x="278" y="37"/>
      <point x="278" y="106" type="curve" smooth="yes"/>
      <point x="278" y="310" type="line" smooth="yes"/>
      <point x="278" y="378"/>
      <point x="230" y="423"/>
      <point x="158" y="423" type="curve" smooth="yes"/>
      <point x="87" y="423"/>
      <point x="40" y="378"/>
      <point x="40" y="310" type="curve" smooth="yes"/>
      <point x="40" y="106" type="line" smooth="yes"/>
      <point x="40" y="37"/>
      <point x="87" y="-8"/>
      <point x="158" y="-8" type="curve" smooth="yes"/>
    </contour>
    <contour>
      <point x="101" y="13"/>
      <point x="62" y="49"/>
      <point x="62" y="104" type="curve" smooth="yes"/>
      <point x="62" y="312" type="line" smooth="yes"/>
      <point x="62" y="366"/>
      <point x="101" y="403"/>
      <point x="158" y="403" type="curve" smooth="yes"/>
      <point x="217" y="403"/>
      <point x="256" y="366"/>
      <point x="256" y="312" type="curve" smooth="yes"/>
      <point x="256" y="104" type="line" smooth="yes"/>
      <point x="256" y="49"/>
      <point x="217" y="13"/>
      <point x="158" y="13" type="curve" smooth="yes"/>
    </contour>
  </outline>
</glyph>
